# xmcd
#
# Track frame offsets: 
#        150
#        12014
#        25578
#        37379
#        50516
#        62838
#        76668
#        89634
#        101903
#        116298
#        132080
#        145594
#        158750
#        171616
#        182707
#        197608
#        209121
#        222276
#        234383
#        248534
#        259624
#        274180
#        285225
#        296481
#        306949
#        319591
#        333244
#
# Disc length: 4624 seconds
#
# Revision: 1
# Processed by: cddbd v1.5.2PL0 Copyright (c) Steve Scherf et al.
# Submitted via: ExactAudioCopy v1.1
#
DISCID=84120e1b
DTITLE=Earl Bostic - The Earl Bostic Story  - Disc 3
DYEAR=2006
DGENRE=R&B
TTITLE0=Way Down (mono)
TTITLE1=Don't You do It (mono)
TTITLE2=Merry Widow Waltz (mono)
TTITLE3=Wrap It Up (mono)
TTITLE4=Rockin' And reelin' (mono)
TTITLE5=September Song (mono)
TTITLE6=I Can't Give You Anything But Love (mono)
TTITLE7=Flamingo (mono)
TTITLE8=Sleep (mono)
TTITLE9=How Could It Have Been You And I (mono)
TTITLE10=Always (mono)
TTITLE11=I'm Getting Sentimental Over You (mono)
TTITLE12=The Moon Is Low (mono)
TTITLE13=Lover Come Back To Me (mono)
TTITLE14=Chains Of Love (mono)
TTITLE15=I Got Loaded (mono)
TTITLE16=Velvet Sunset (mono)
TTITLE17=Moonglow (mono)
TTITLE18=Linger Awhile (mono)
TTITLE19=Ain't Misbehavin' (mono)
TTITLE20=You Go To My Head (mono)
TTITLE21=The Hour Of Parting (mono)
TTITLE22=Smoke Gets In Your Eyes (mono)
TTITLE23=For You (mono)
TTITLE24=Sheik Of Araby (mono)
TTITLE25=Cherokee (mono)
TTITLE26=Steamwhistle Jump (mono)
EXTD=
EXTT0=
EXTT1=
EXTT2=
EXTT3=
EXTT4=
EXTT5=
EXTT6=
EXTT7=
EXTT8=
EXTT9=
EXTT10=
EXTT11=
EXTT12=
EXTT13=
EXTT14=
EXTT15=
EXTT16=
EXTT17=
EXTT18=
EXTT19=
EXTT20=
EXTT21=
EXTT22=
EXTT23=
EXTT24=
EXTT25=
EXTT26=
PLAYORDER=
